<?xml version="1.0" encoding="UTF-8"?>
<svg version="1.1" xmlns="http://www.w3.org/2000/svg" width="512" height="512">
<path d="M0 0 C1.62825398 -0.00489719 3.25650449 -0.01109081 4.88474917 -0.01845789 C9.33042173 -0.03477557 13.77591599 -0.03255624 18.22160792 -0.02708292 C23.02749575 -0.02440258 27.83333713 -0.03896331 32.63920593 -0.05117798 C42.04373871 -0.07219203 51.44820978 -0.07677513 60.85276327 -0.07499009 C68.50061229 -0.07368041 76.14844212 -0.07749711 83.79628754 -0.08491516 C86.0026044 -0.08701445 88.20892127 -0.08911205 90.41523814 -0.09120798 C91.51352493 -0.09225151 92.61181172 -0.09329504 93.74337992 -0.09437019 C114.49688072 -0.1132564 135.25034615 -0.11222735 156.00385198 -0.10540086 C174.9683575 -0.09982686 193.93272787 -0.12064767 212.89720181 -0.15376133 C232.39264453 -0.1875366 251.88802258 -0.20266186 271.38349509 -0.1980443 C282.31957905 -0.19580346 293.2555381 -0.20098631 304.19159698 -0.22593689 C313.50248914 -0.24699961 322.81318791 -0.25049277 332.12408814 -0.2316373 C336.86945763 -0.22251003 341.61446702 -0.22124367 346.35980797 -0.24199295 C350.71382008 -0.26081965 355.06718011 -0.25606999 359.4211683 -0.23344713 C360.98636087 -0.22929067 362.5516046 -0.23336054 364.11674288 -0.24704307 C384.07031324 -0.40943546 401.40850455 6.11373933 415.83685303 20.30065918 C423.03658366 27.84486284 428.63630062 37.43245042 431.66888428 47.39440918 C432.17872659 48.95244389 432.17872659 48.95244389 432.69886875 50.54195404 C434.37837327 57.38384279 433.95491076 64.51034151 433.94303894 71.51025391 C433.94749445 73.16392747 433.95280953 74.8175989 433.95890766 76.47126722 C433.97306082 81.00575181 433.97475146 85.54016776 433.97431076 90.07467127 C433.97596136 94.96923897 433.98903253 99.86377859 434.00050354 104.7583313 C434.02333496 115.45693739 434.03127232 126.15552362 434.03632998 136.85415077 C434.03958951 143.53862935 434.04611359 150.22310219 434.05333138 156.90757751 C434.07289577 175.42682967 434.08930062 193.9460765 434.09220791 212.46533966 C434.09239548 213.65001342 434.09258305 214.83468718 434.0927763 216.05526015 C434.09314255 218.45673656 434.09350624 220.85821298 434.09386741 223.25968939 C434.09405022 224.45173481 434.09423304 225.64378023 434.09442139 226.87194824 C434.09469221 228.66220748 434.09469221 228.66220748 434.09496851 230.48863357 C434.09850858 249.81874661 434.12552133 269.14874815 434.16291928 288.47882253 C434.20103666 308.34025697 434.22036564 328.20163614 434.22066742 348.06310797 C434.22125126 359.20829087 434.22969558 370.35334079 434.25866508 381.49848938 C434.28322496 390.99062861 434.29043083 400.48258635 434.27541756 409.97474879 C434.26826725 414.81325605 434.26902473 419.65140526 434.29182816 424.48987198 C434.31254875 428.92914988 434.30969696 433.36779744 434.28895331 437.80706948 C434.28548323 439.40334076 434.29026171 440.99965875 434.30465775 442.59586889 C434.47381394 462.66325774 428.04712618 480.03479695 413.76263428 494.56237793 C406.21843061 501.76210856 396.63084304 507.36182552 386.66888428 510.39440918 C385.63019447 510.73430406 384.59150467 511.07419893 383.52133942 511.42439365 C376.67945066 513.10389818 369.55295195 512.68043567 362.55303955 512.66856384 C360.89936599 512.67301936 359.24569456 512.67833443 357.59202623 512.68443257 C353.05754165 512.69858573 348.5231257 512.70027637 343.98862219 512.69983566 C339.09405449 512.70148626 334.19951487 512.71455743 329.30496216 512.72602844 C318.60635607 512.74885986 307.90776984 512.75679723 297.20914268 512.76185489 C290.52466411 512.76511441 283.84019127 512.77163849 277.15571594 512.77885628 C258.63646378 512.79842068 240.11721696 512.81482553 221.5979538 512.81773281 C220.41328003 512.81792038 219.22860627 512.81810795 218.00803331 512.8183012 C215.60655689 512.81866745 213.20508048 512.81903115 210.80360407 512.81939232 C209.61155865 512.81957513 208.41951322 512.81975794 207.19134521 512.81994629 C205.40108598 512.82021711 205.40108598 512.82021711 203.57465988 512.82049341 C184.24454684 512.82403349 164.91454531 512.85104623 145.58447093 512.88844418 C125.72303648 512.92656156 105.86165731 512.94589054 86.00018549 512.94619232 C74.85500258 512.94677616 63.70995267 512.95522048 52.56480408 512.98418999 C43.07266485 513.00874987 33.58070711 513.01595574 24.08854467 513.00094246 C19.25003741 512.99379215 14.41188819 512.99454963 9.57342148 513.01735306 C5.13414358 513.03807365 0.69549602 513.03522187 -3.74377602 513.01447821 C-5.3400473 513.01100814 -6.93636529 513.01578661 -8.53257543 513.03018265 C-28.59996429 513.19933885 -45.97150349 506.77265109 -60.49908447 492.48815918 C-67.69881511 484.94395552 -73.29853206 475.35636794 -76.33111572 465.39440918 C-76.67114939 464.35037713 -77.01118305 463.30634508 -77.36152077 462.2306757 C-79.02059463 455.47321812 -78.61360164 448.45061301 -78.59854126 441.5375824 C-78.60228034 439.91207006 -78.60688289 438.28655952 -78.6122719 436.66105181 C-78.62448577 432.20444345 -78.62424333 427.74791025 -78.62188315 423.29128897 C-78.62147457 418.4805884 -78.63251822 413.66991179 -78.64199829 408.85922241 C-78.65860127 399.43710754 -78.66410755 390.0150177 -78.66522305 380.59288942 C-78.66617401 372.93111479 -78.67028675 365.2693484 -78.6766243 357.60757637 C-78.69423611 335.8724986 -78.70346346 314.13744056 -78.70196335 292.4023556 C-78.70188344 291.23095643 -78.70180353 290.05955725 -78.70172119 288.85266113 C-78.70163943 287.67982697 -78.70155767 286.5069928 -78.70147343 285.2986182 C-78.70066093 266.30087166 -78.71978981 247.30320448 -78.74799792 228.30548089 C-78.7767507 208.78644534 -78.79053685 189.26744847 -78.78881037 169.74839121 C-78.78814722 158.79496921 -78.79360667 147.84163036 -78.81516647 136.88822746 C-78.83340993 127.56003366 -78.83769975 118.23196069 -78.82414763 108.90375673 C-78.81763348 104.14845753 -78.81744434 99.39338995 -78.83485413 94.63811302 C-78.85065928 90.27605933 -78.84764589 85.91441944 -78.83028586 81.55237538 C-78.82723222 79.98304254 -78.83078593 78.41367823 -78.84200601 76.84438252 C-78.98651732 55.17944234 -71.89030451 36.49866824 -56.78424072 20.82409668 C-41.01468447 5.30888811 -21.57611106 -0.08095435 0 0 Z M137.66888428 129.39440918 C136.93460205 129.56069824 136.20031982 129.7269873 135.44378662 129.89831543 C120.286479 133.4795651 106.24252705 139.83372955 94.66888428 150.39440918 C94.04884521 150.9229248 93.42880615 151.45144043 92.78997803 151.99597168 C80.4370447 163.21586191 73.97101297 180.4430303 72.45013428 196.73815918 C71.77416335 213.63743234 77.55489965 230.25710364 88.85638428 242.83190918 C108.85095522 263.75508517 138.77275488 271.75911867 165.91888428 278.45690918 C206.34705151 288.43273331 206.34705151 288.43273331 214.73138428 301.64440918 C216.58266806 309.0495443 217.0763181 316.83417166 213.04779053 323.58581543 C207.76658599 330.5127211 201.25614925 334.81180528 192.66888428 336.39440918 C178.83188758 337.65382115 165.43405994 337.5245686 153.79388428 329.14440918 C143.09511025 320.03207181 139.74373732 308.71396451 136.66888428 295.39440918 C127.79049895 295.26525785 119.00912005 295.66042944 110.15325928 296.26940918 C108.80279809 296.35943616 107.45231334 296.44911049 106.10180664 296.53845215 C102.59017195 296.77169197 99.07887249 297.00963985 95.56762695 297.24865723 C91.96745938 297.49286118 88.36698744 297.73249027 84.76654053 297.97253418 C77.73368847 298.44208079 70.70118122 298.91661473 63.66888428 299.39440918 C63.81698482 301.31209984 63.96842769 303.22953257 64.12127686 305.14685059 C64.20525223 306.21464752 64.2892276 307.28244446 64.37574768 308.38259888 C66.3983989 329.16417938 77.32101728 347.73963593 91.66888428 362.39440918 C92.25798584 363.01960449 92.8470874 363.6447998 93.45404053 364.28894043 C107.56176096 378.02458911 129.81591342 382.8406203 148.66888428 385.39440918 C149.67507812 385.53797852 149.67507812 385.53797852 150.70159912 385.68444824 C159.04304752 386.70227641 167.45119005 386.61640984 175.84173584 386.63464355 C178.50319747 386.64426214 181.16385581 386.6753213 183.82513428 386.70690918 C215.67566271 386.90353331 245.87174359 379.57470028 269.41888428 357.08190918 C274.386493 351.95862041 278.20690294 346.61870634 281.66888428 340.39440918 C282.12907959 339.58358887 282.5892749 338.77276855 283.06341553 337.93737793 C292.12061219 320.99959928 294.70609874 300.08812051 290.10638428 281.39440918 C283.58361934 260.80693234 271.12189494 246.42404009 252.09490967 236.28210449 C230.90586182 225.49116889 207.74130597 219.91368835 184.71575928 214.50769043 C184.06815643 214.35484589 183.42055359 214.20200134 182.75332642 214.04452515 C179.67585761 213.3193803 176.59654142 212.60674395 173.51116943 211.91589355 C152.51298706 207.05219904 152.51298706 207.05219904 146.66888428 199.39440918 C144.94651231 194.22729327 145.01326806 189.28841159 146.79388428 184.14440918 C150.85511495 178.18793753 155.77341433 175.26812182 162.66888428 173.39440918 C165.93101114 172.97001465 169.13222745 172.91653953 172.41888428 172.95690918 C173.2977832 172.96593262 174.17668213 172.97495605 175.08221436 172.98425293 C185.6162107 173.26342758 194.05741178 175.54867149 201.76263428 183.05847168 C206.12901365 188.40907591 208.27627946 194.40907545 209.72967529 201.08215332 C209.90652359 201.89036026 210.08337189 202.6985672 210.26557922 203.53126526 C210.39866989 204.14610275 210.53176056 204.76094025 210.66888428 205.39440918 C219.59654355 204.89466245 228.52395693 204.39077907 237.45108414 203.88161564 C241.59632648 203.64531991 245.74163932 203.41044894 249.887146 203.17883301 C253.88789886 202.95525212 257.8884232 202.72793008 261.88881683 202.49801445 C263.41494965 202.41096202 264.94115994 202.32525707 266.46744537 202.24092293 C268.60545054 202.12255747 270.74312988 201.99940085 272.88079834 201.87512207 C274.09769348 201.80628311 275.31458862 201.73744415 276.56835938 201.66651917 C279.07307749 201.44669871 281.26966343 201.10996097 283.66888428 200.39440918 C281.22587762 178.77197708 273.14856954 159.73973548 256.33685303 145.40612793 C246.71127391 138.20689711 235.70122705 133.67609519 224.16888428 130.58190918 C223.08619263 130.28969482 223.08619263 130.28969482 221.98162842 129.99157715 C207.9374382 126.48400626 193.92779789 126.0218885 179.54388428 126.08190918 C178.63880127 126.08373199 177.73371826 126.08555481 176.8012085 126.08743286 C163.58403884 126.13227892 150.60147872 126.38971767 137.66888428 129.39440918 Z " fill="#000000" transform="translate(78.33111572265625,-0.3944091796875)"/>
</svg>
